safari-pinned-tab.svg
<?xml version="1.0" standalone="no"?>
<!DOCTYPE svg PUBLIC "-//W3C//DTD SVG 20010904//EN"
 "http://www.w3.org/TR/2001/REC-SVG-20010904/DTD/svg10.dtd">
<svg version="1.0" xmlns="http://www.w3.org/2000/svg"
 width="512.000000pt" height="512.000000pt" viewBox="0 0 512.000000 512.000000"
 preserveAspectRatio="xMidYMid meet">
<metadata>
Created by potrace 1.14, written by Peter Selinger 2001-2017
</metadata>
<g transform="translate(0.000000,512.000000) scale(0.100000,-0.100000)"
fill="#000000" stroke="none">
<path d="M3043 3779 c-209 -25 -397 -125 -529 -280 -28 -33 -60 -76 -70 -95
-13 -23 -24 -32 -34 -28 -70 27 -279 43 -388 29 -176 -24 -374 -116 -509 -239
-193 -174 -312 -448 -308 -703 1 -40 -1 -73 -4 -74 -3 0 -15 -2 -26 -3 -113
-16 -180 -41 -257 -94 -64 -45 -106 -91 -149 -161 -49 -81 -71 -157 -73 -251
-2 -107 10 -165 51 -250 68 -142 210 -253 365 -285 78 -17 1472 -21 1514 -5
14 6 29 23 35 40 l11 30 154 0 c143 0 154 -1 154 -18 0 -29 34 -53 81 -56 65
-5 105 9 119 44 l12 30 149 0 c140 0 149 -1 149 -19 0 -11 12 -29 26 -40 25
-19 38 -21 231 -19 240 1 283 8 380 54 263 125 373 441 248 706 -14 30 -38 70
-54 88 l-28 34 29 56 c67 136 61 302 -18 436 -66 112 -222 210 -339 213 l-30
1 -1 90 c-3 181 -82 372 -212 513 -170 185 -435 285 -679 256z"/>
</g>
</svg>